# xmcd
#
# Track frame offsets:
#	150
#	9998
#	32111
#	49383
#	53926
#	58880
#	74745
#	84431
#	94820
#	105325
#	124103
#	132976
#	143579
#	155449
#	168634
#	179860
#	193490
#
# Disc length: 2856 seconds
#
# Revision: 1
# Processed by: cddbd v1.5.2PL0 Copyright (c) Steve Scherf et al.
# Submitted via: CD-Transfer v1.0
#
DISCID=000b2611
DTITLE=Brian Wilson - Brian Wilson, Van Dyke Parks
DYEAR=2004
DGENRE=
TTITLE0=Our Prayer - Gee
TTITLE1=Heroes and Villains
TTITLE2=Roll Plymouth Rock
TTITLE3=Barnyard
TTITLE4=Old Master Painter - You Are My Sunshine
TTITLE5=Cabin Essence
TTITLE6=Wonderful
TTITLE7=Song for Children
TTITLE8=Child is Father of the Man
TTITLE9=Surf's Up
TTITLE10=I'm in A Great Shape - I Wanna Be Around - Workshop
TTITLE11=Vega-Tables
TTITLE12=On A Holiday
TTITLE13=Wind Chimes
TTITLE14=Mrs. O'leary's Cow
TTITLE15=In Blue Hawaii
TTITLE16=Good Vibrations
EXTD=
EXTT0=
EXTT1=
EXTT2=
EXTT3=
EXTT4=
EXTT5=
EXTT6=
EXTT7=
EXTT8=
EXTT9=
EXTT10=
EXTT11=
EXTT12=
EXTT13=
EXTT14=
EXTT15=
EXTT16=
PLAYORDER=
